# xmcd CD database file
#
# Track frame offsets:
#	150
#	16960
#	30062
#	43550
#	57810
#	73497
#	83962
#	97435
#	110604
#	126217
#	141247
#	161682
#	175695
#	188755
#
# Disc length: 2707 seconds
#
# Revision: 0
# Processed by: cddbd v1.4PL0 Copyright (c) Steve Scherf et al.
# Submitted via: CDex 1.50
#
DISCID=c00a910e
DTITLE=Tião Carreiro E Paraíso - Seleção de Ouro
DYEAR=1900
DGENRE=Country
TTITLE0=Hoje Eu Não Posso Ir
TTITLE1=Chave do Apartamento
TTITLE2=Ara Pó
TTITLE3=Amargurado
TTITLE4=Rio de Piracicaba
TTITLE5=Saudade
TTITLE6=Cabelo Loiro
TTITLE7=Pagode em Brasília
TTITLE8=A Mão do Tempo
TTITLE9=A Vaca Ja Foi Pro Brejo
TTITLE10=Golpe de Mestre
TTITLE11=O Pulo do Gato
TTITLE12=Pai João
TTITLE13=O Carteiro
EXTD=
EXTT0=
EXTT1=
EXTT2=
EXTT3=
EXTT4=
EXTT5=
EXTT6=
EXTT7=
EXTT8=
EXTT9=
EXTT10=
EXTT11=
EXTT12=
EXTT13=
PLAYORDER=
